<svg xmlns="http://www.w3.org/2000/svg" viewBox="0 0 128 128" role="img" aria-labelledby="t d"><title id="t">Starcode BOM</title><desc id="d">Geometric SB monogram</desc><defs><linearGradient id="g" x1="10" y1="8" x2="118" y2="120"><stop stop-color="#75f6d3"/><stop offset=".52" stop-color="#47a8ff"/><stop offset="1" stop-color="#976dff"/></linearGradient><filter id="s"><feDropShadow dy="7" stdDeviation="7" flood-color="#47a8ff" flood-opacity=".25"/></filter></defs><path fill="#0a0e15" stroke="url(#g)" stroke-width="4" d="m64 7 47 27v60l-47 27-47-27V34z" filter="url(#s)"/><path fill="url(#g)" d="M38 37c0-7 6-12 13-12h36v14H55c-2 0-3 1-3 3s1 3 3 3h19c9 0 14 5 14 13 0 5-2 9-6 11 6 2 10 8 10 15 0 11-8 19-20 19H38V89h34c4 0 6-2 6-6s-2-6-6-6H48V64h26v-6H52c-8 0-14-5-14-13z"/><circle cx="97" cy="31" r="5" fill="#fff"/></svg>
